<svg width="1600" height="1000" viewBox="0 0 1600 1000" fill="none" xmlns="http://www.w3.org/2000/svg">
<rect width="1600" height="1000" fill="#0A0D10"/><circle cx="360" cy="200" r="460" fill="#4BC3FF" fill-opacity=".08"/><circle cx="1280" cy="720" r="500" fill="#75F5B5" fill-opacity=".08"/>
<rect x="100" y="100" width="1400" height="800" rx="42" fill="#0E1316" stroke="#fff" stroke-opacity=".1"/>
<text x="150" y="175" fill="#EAF4EE" font-family="Arial" font-size="34" font-weight="700">Document Search RAG</text><text x="150" y="214" fill="#72847D" font-family="monospace" font-size="15">SEMANTIC RETRIEVAL · GROUNDED ANSWERS</text>
<rect x="150" y="270" width="420" height="555" rx="28" fill="#12191C"/><text x="185" y="320" fill="#75F5B5" font-family="monospace" font-size="14">KNOWLEDGE BASE</text>
<g font-family="Arial"><rect x="185" y="355" width="350" height="85" rx="20" fill="#0C1214"/><text x="215" y="392" fill="#EAF4EE" font-size="19">research-paper.pdf</text><text x="215" y="418" fill="#75877F" font-size="14">42 chunks · indexed</text><rect x="185" y="460" width="350" height="85" rx="20" fill="#0C1214"/><text x="215" y="497" fill="#EAF4EE" font-size="19">project-notes.pdf</text><text x="215" y="523" fill="#75877F" font-size="14">18 chunks · indexed</text></g>
<rect x="615" y="270" width="835" height="555" rx="28" fill="#10171A"/><text x="655" y="326" fill="#7A8A84" font-family="monospace" font-size="14">QUESTION</text><text x="655" y="374" fill="#EAF4EE" font-family="Arial" font-size="27">How does the proposed retrieval method work?</text>
<rect x="655" y="420" width="755" height="140" rx="24" fill="#0C1214" stroke="#75F5B5" stroke-opacity=".22"/><text x="690" y="462" fill="#75F5B5" font-family="monospace" font-size="13">TOP CONTEXT · SCORE 0.91</text><text x="690" y="506" fill="#B7C6BF" font-family="Arial" font-size="18">The system embeds each chunk, performs vector similarity search,</text><text x="690" y="536" fill="#B7C6BF" font-family="Arial" font-size="18">then supplies the most relevant passages to the language model…</text>
<rect x="655" y="600" width="755" height="170" rx="24" fill="#11211C"/><text x="690" y="644" fill="#75F5B5" font-family="monospace" font-size="13">ANSWER</text><text x="690" y="690" fill="#EAF4EE" font-family="Arial" font-size="20">The pipeline uses semantic embeddings + FAISS retrieval before</text><text x="690" y="722" fill="#EAF4EE" font-family="Arial" font-size="20">generation, keeping the response tied to source passages.</text><text x="690" y="752" fill="#82958C" font-family="Arial" font-size="15">Source: research-paper.pdf · p. 7</text>
</svg>
